<?xml version="1.0"?>
<svg width="200" height="200" xmlns="http://www.w3.org/2000/svg" xmlns:svg="http://www.w3.org/2000/svg">
 <g class="layer">
  <title>Layer 1</title>
  <g id="noun_48910_cc" xmlns="http://www.w3.org/2000/svg">
   <path d="m24.503,115.75l-5.006,0a0.341,0.341 0 0 0 -0.34,0.342l0,1.125l5.686,0l0,-1.125a0.341,0.341 0 0 0 -0.34,-0.341l0,-0.001z" id="Shape"/>
   <path d="m35.364,117.217l-8.774,0l0,-1.125a2.09,2.09 0 0 0 -2.087,-2.092l-5.006,0c-1.15,0 -2.087,0.938 -2.087,2.092l0,1.125l-8.773,0c-0.7,0 -1.266,0.568 -1.266,1.269l0,0.09c0,0.7 0.567,1.267 1.266,1.267l26.727,0c0.699,0 1.266,-0.567 1.266,-1.268l0,-0.09c0,-0.7 -0.567,-1.268 -1.266,-1.268zm-10.52,0l-5.687,0l0,-1.125c0,-0.188 0.153,-0.341 0.34,-0.341l5.006,0a0.34,0.34 0 0 1 0.34,0.34l0,1.126l0.001,0zm8.21,3.064l-22.326,0c-1.298,0 -2.35,-0.224 -2.35,1.077l1.762,25.838c0,1.3 1.052,2.409 2.35,2.409l18.802,0c1.298,0 2.35,-1.11 2.35,-2.409l1.763,-25.838c0,-1.301 -1.053,-1.077 -2.35,-1.077l-0.001,0zm-16.417,25.912c-0.377,0.012 -0.691,-0.261 -0.704,-0.612l-0.694,-19.917c-0.012,-0.351 0.283,-0.647 0.66,-0.66c0.376,-0.013 0.69,0.261 0.703,0.613l0.694,19.916c0.013,0.351 -0.283,0.647 -0.659,0.66zm6.044,-0.63c0,0.352 -0.306,0.637 -0.682,0.637c-0.377,0 -0.682,-0.286 -0.682,-0.637l0,-19.929c0,-0.351 0.305,-0.636 0.682,-0.636c0.376,0 0.682,0.285 0.682,0.636l0,19.93l0,-0.001zm5.384,0.018c-0.012,0.351 -0.327,0.625 -0.704,0.612c-0.376,-0.013 -0.672,-0.308 -0.66,-0.66l0.695,-19.916c0.012,-0.352 0.326,-0.626 0.703,-0.613c0.377,0.014 0.672,0.309 0.66,0.66l-0.694,19.917z" fill="#A7333A" id="Shape"/>
  </g>
 </g>
</svg>